<mxfile host="app.diagrams.net" modified="2023-06-20T16:57:28.735Z" agent="Mozilla/5.0 (Windows NT 10.0; Win64; x64) AppleWebKit/537.36 (KHTML, like Gecko) Chrome/114.0.0.0 Safari/537.36" version="21.5.0" etag="ovW3e9PrlWWatB7s8x_6" type="github">
  <diagram name="Trang-1" id="zS7G2FdawRMnOupjozja">
    <mxGraphModel>
      <root>
        <mxCell id="0" />
        <mxCell id="1" parent="0" />
      </root>
    </mxGraphModel>
  </diagram>
</mxfile>
